<?xml version="1.0" ?><svg id="Layer_1" style="enable-background:new 0 0 24 24;" version="1.1" viewBox="0 0 24 24" xml:space="preserve" xmlns="http://www.w3.org/2000/svg" xmlns:xlink="http://www.w3.org/1999/xlink"><path d="M22.575,9.667c-0.249-0.04-0.485,0.114-0.555,0.355  c-0.689,2.38-2.533,4.221-5.061,5.05c-0.375,0.123-0.808,0.183-1.324,0.183c-2.49,0-4.749-1.249-5.894-3.258  c-1.229-2.155-0.977-4.593,0.642-6.211c0.902-0.902,2.131-1.404,3.454-1.414c2.209,0.013,4.017,1.82,4.031,4.029  c0.005,0.885-0.335,1.715-0.958,2.338c-0.618,0.618-1.441,0.958-2.339,0.958c-1.512-0.009-2.749-1.246-2.759-2.758  c-0.002-0.276,0.221-0.502,0.5-0.503c0.274,0,0.499,0.223,0.5,0.497c0.005,0.967,0.797,1.758,1.778,1.764  c0.611,0,1.183-0.236,1.612-0.665c0.433-0.433,0.669-1.01,0.665-1.625c-0.01-1.664-1.372-3.026-3.05-3.035  c-1.074,0.023-2.017,0.411-2.727,1.121c-0.729,0.729-1.128,1.702-1.122,2.74c0.016,2.753,2.269,5.006,5.036,5.022  c1.758-0.034,3.304-0.669,4.471-1.835c1.193-1.193,1.845-2.784,1.834-4.536c-0.044-3.461-2.837-6.463-6.358-6.834  c-0.791-0.085-1.622-0.062-2.441,0.072C8.571,1.763,5.508,4.985,5.06,8.957c-0.274,2.435,0.413,4.774,1.919,6.652l-5.686,5.684  c-0.391,0.391-0.391,1.023,0,1.414C1.489,22.902,1.744,23,2,23c0.256,0,0.512-0.098,0.707-0.293l5.687-5.685  C9.979,18.286,11.952,19,14.005,19c4.869,0,8.904-3.961,8.995-8.83C23.004,9.92,22.823,9.704,22.575,9.667z" id="XMLID_113_" style="fill:#303C42;"/><g/><g/><g/><g/><g/><g/><g/><g/><g/><g/><g/><g/><g/><g/><g/></svg>